# Blender v2.79 (sub 0) OBJ File: ''
# www.blender.org
o Cube_Cube.004
v -2.547362 0.502974 0.771107
v -2.547362 0.336863 0.771107
v -2.547362 0.502974 1.140621
v -2.547362 0.336863 1.140621
v 2.693076 0.502974 0.771107
v 2.693076 0.336863 0.771107
v 2.693076 0.502974 1.140621
v 2.693076 0.336863 1.140621
vt 0.625000 0.000000
vt 0.375000 0.250000
vt 0.375000 0.000000
vt 0.625000 0.250000
vt 0.375000 0.500000
vt 0.625000 0.500000
vt 0.375000 0.750000
vt 0.625000 0.750000
vt 0.375000 1.000000
vt 0.125000 0.750000
vt 0.125000 0.500000
vt 0.875000 0.500000
vt 0.625000 1.000000
vt 0.875000 0.750000
vn -1.0000 0.0000 0.0000
vn 0.0000 0.0000 1.0000
vn 1.0000 0.0000 0.0000
vn 0.0000 0.0000 -1.0000
vn 0.0000 1.0000 0.0000
vn 0.0000 -1.0000 0.0000
s off
f 2/1/1 3/2/1 1/3/1
f 4/4/2 7/5/2 3/2/2
f 8/6/3 5/7/3 7/5/3
f 6/8/4 1/9/4 5/7/4
f 7/5/5 1/10/5 3/11/5
f 4/12/6 6/8/6 8/6/6
f 2/1/1 4/4/1 3/2/1
f 4/4/2 8/6/2 7/5/2
f 8/6/3 6/8/3 5/7/3
f 6/8/4 2/13/4 1/9/4
f 7/5/5 5/7/5 1/10/5
f 4/12/6 2/14/6 6/8/6
o Cube.001_Cube.005
v -2.547362 0.734388 0.327754
v -2.547362 0.568276 0.327754
v -2.547362 0.734388 0.697268
v -2.547362 0.568276 0.697268
v 2.693076 0.734388 0.327754
v 2.693076 0.568276 0.327754
v 2.693076 0.734388 0.697268
v 2.693076 0.568276 0.697268
vt 0.625000 0.000000
vt 0.375000 0.250000
vt 0.375000 0.000000
vt 0.625000 0.250000
vt 0.375000 0.500000
vt 0.625000 0.500000
vt 0.375000 0.750000
vt 0.625000 0.750000
vt 0.375000 1.000000
vt 0.125000 0.750000
vt 0.125000 0.500000
vt 0.875000 0.500000
vt 0.625000 1.000000
vt 0.875000 0.750000
vn -1.0000 0.0000 0.0000
vn 0.0000 0.0000 1.0000
vn 1.0000 0.0000 0.0000
vn 0.0000 0.0000 -1.0000
vn 0.0000 1.0000 0.0000
vn 0.0000 -1.0000 0.0000
s off
f 10/15/7 11/16/7 9/17/7
f 12/18/8 15/19/8 11/16/8
f 16/20/9 13/21/9 15/19/9
f 14/22/10 9/23/10 13/21/10
f 15/19/11 9/24/11 11/25/11
f 12/26/12 14/22/12 16/20/12
f 10/15/7 12/18/7 11/16/7
f 12/18/8 16/20/8 15/19/8
f 16/20/9 14/22/9 13/21/9
f 14/22/10 10/27/10 9/23/10
f 15/19/11 13/21/11 9/24/11
f 12/26/12 10/28/12 14/22/12
o Cube.002_Cube.006
v -2.547362 0.980369 -0.112576
v -2.547362 0.814258 -0.112576
v -2.547362 0.980369 0.256937
v -2.547362 0.814258 0.256937
v 2.693076 0.980369 -0.112576
v 2.693076 0.814258 -0.112576
v 2.693076 0.980369 0.256937
v 2.693076 0.814258 0.256937
vt 0.333333 0.333333
vt 0.666667 0.000000
vt 0.666667 0.333333
vt 0.000000 0.666667
vt 0.333333 0.333333
vt 0.333333 0.666667
vt 0.000000 0.333333
vt 0.333333 0.000000
vt 0.333333 0.333333
vt 0.666667 0.666667
vt 0.333333 0.666667
vt 0.666667 0.333333
vt 1.000000 0.000000
vt 1.000000 0.333333
vt 0.333333 1.000000
vt 0.000000 0.666667
vt 0.333333 0.666667
vt 0.333333 0.000000
vt 0.000000 0.000000
vt 0.666667 0.333333
vt 0.666667 0.000000
vt 0.000000 1.000000
vn -1.0000 0.0000 0.0000
vn 0.0000 0.0000 1.0000
vn 1.0000 0.0000 0.0000
vn 0.0000 0.0000 -1.0000
vn 0.0000 1.0000 0.0000
vn 0.0000 -1.0000 0.0000
s off
f 18/29/13 19/30/13 17/31/13
f 20/32/14 23/33/14 19/34/14
f 24/35/15 21/36/15 23/33/15
f 22/37/16 17/38/16 21/39/16
f 23/40/17 17/41/17 19/42/17
f 20/43/18 22/44/18 24/45/18
f 18/29/13 20/46/13 19/30/13
f 20/32/14 24/35/14 23/33/14
f 24/35/15 22/47/15 21/36/15
f 22/37/16 18/48/16 17/38/16
f 23/40/17 21/49/17 17/41/17
f 20/43/18 18/50/18 22/44/18
o Cube.003_Cube.007
v -2.547362 1.207202 -0.563897
v -2.547362 1.041091 -0.563897
v -2.547362 1.207202 -0.194384
v -2.547362 1.041091 -0.194384
v 2.693076 1.207202 -0.563897
v 2.693076 1.041091 -0.563897
v 2.693076 1.207202 -0.194384
v 2.693076 1.041091 -0.194384
vt 0.625000 0.000000
vt 0.375000 0.250000
vt 0.375000 0.000000
vt 0.625000 0.250000
vt 0.375000 0.500000
vt 0.625000 0.500000
vt 0.375000 0.750000
vt 0.625000 0.750000
vt 0.375000 1.000000
vt 0.125000 0.750000
vt 0.125000 0.500000
vt 0.875000 0.500000
vt 0.625000 1.000000
vt 0.875000 0.750000
vn -1.0000 0.0000 0.0000
vn 0.0000 0.0000 1.0000
vn 1.0000 0.0000 0.0000
vn 0.0000 0.0000 -1.0000
vn 0.0000 1.0000 0.0000
vn 0.0000 -1.0000 0.0000
s off
f 26/51/19 27/52/19 25/53/19
f 28/54/20 31/55/20 27/52/20
f 32/56/21 29/57/21 31/55/21
f 30/58/22 25/59/22 29/57/22
f 31/55/23 25/60/23 27/61/23
f 28/62/24 30/58/24 32/56/24
f 26/51/19 28/54/19 27/52/19
f 28/54/20 32/56/20 31/55/20
f 32/56/21 30/58/21 29/57/21
f 30/58/22 26/63/22 25/59/22
f 31/55/23 29/57/23 25/60/23
f 28/62/24 26/64/24 30/58/24
o Cube.007_Cube.011
v -2.547362 1.443652 -0.967434
v -2.547362 1.277541 -0.967434
v -2.547362 1.443652 -0.597921
v -2.547362 1.277541 -0.597921
v 2.693076 1.443652 -0.967434
v 2.693076 1.277541 -0.967434
v 2.693076 1.443652 -0.597921
v 2.693076 1.277541 -0.597921
vt 0.625000 0.000000
vt 0.375000 0.250000
vt 0.375000 0.000000
vt 0.625000 0.250000
vt 0.375000 0.500000
vt 0.625000 0.500000
vt 0.375000 0.750000
vt 0.625000 0.750000
vt 0.375000 1.000000
vt 0.125000 0.750000
vt 0.125000 0.500000
vt 0.875000 0.500000
vt 0.625000 1.000000
vt 0.875000 0.750000
vn -1.0000 0.0000 0.0000
vn 0.0000 0.0000 1.0000
vn 1.0000 0.0000 0.0000
vn 0.0000 0.0000 -1.0000
vn 0.0000 1.0000 0.0000
vn 0.0000 -1.0000 0.0000
s off
f 34/65/25 35/66/25 33/67/25
f 36/68/26 39/69/26 35/66/26
f 40/70/27 37/71/27 39/69/27
f 38/72/28 33/73/28 37/71/28
f 39/69/29 33/74/29 35/75/29
f 36/76/30 38/72/30 40/70/30
f 34/65/25 36/68/25 35/66/25
f 36/68/26 40/70/26 39/69/26
f 40/70/27 38/72/27 37/71/27
f 38/72/28 34/77/28 33/73/28
f 39/69/29 37/71/29 33/74/29
f 36/76/30 34/78/30 38/72/30
o Cube.006_Cube.010
v -2.547362 1.675066 -1.410787
v -2.547362 1.508954 -1.410787
v -2.547362 1.675066 -1.041274
v -2.547362 1.508954 -1.041274
v 2.693076 1.675066 -1.410787
v 2.693076 1.508954 -1.410787
v 2.693076 1.675066 -1.041274
v 2.693076 1.508954 -1.041274
vt 0.625000 0.000000
vt 0.375000 0.250000
vt 0.375000 0.000000
vt 0.625000 0.250000
vt 0.375000 0.500000
vt 0.625000 0.500000
vt 0.375000 0.750000
vt 0.625000 0.750000
vt 0.375000 1.000000
vt 0.125000 0.750000
vt 0.125000 0.500000
vt 0.875000 0.500000
vt 0.625000 1.000000
vt 0.875000 0.750000
vn -1.0000 0.0000 0.0000
vn 0.0000 0.0000 1.0000
vn 1.0000 0.0000 0.0000
vn 0.0000 0.0000 -1.0000
vn 0.0000 1.0000 0.0000
vn 0.0000 -1.0000 0.0000
s off
f 42/79/31 43/80/31 41/81/31
f 44/82/32 47/83/32 43/80/32
f 48/84/33 45/85/33 47/83/33
f 46/86/34 41/87/34 45/85/34
f 47/83/35 41/88/35 43/89/35
f 44/90/36 46/86/36 48/84/36
f 42/79/31 44/82/31 43/80/31
f 44/82/32 48/84/32 47/83/32
f 48/84/33 46/86/33 45/85/33
f 46/86/34 42/91/34 41/87/34
f 47/83/35 45/85/35 41/88/35
f 44/90/36 42/92/36 46/86/36
o Cube.005_Cube.009
v -2.547362 1.921047 -1.851118
v -2.547362 1.754936 -1.851118
v -2.547362 1.921047 -1.481604
v -2.547362 1.754936 -1.481604
v 2.693076 1.921047 -1.851118
v 2.693076 1.754936 -1.851118
v 2.693076 1.921047 -1.481604
v 2.693076 1.754936 -1.481604
vt 0.625000 0.000000
vt 0.375000 0.250000
vt 0.375000 0.000000
vt 0.625000 0.250000
vt 0.375000 0.500000
vt 0.625000 0.500000
vt 0.375000 0.750000
vt 0.625000 0.750000
vt 0.375000 1.000000
vt 0.125000 0.750000
vt 0.125000 0.500000
vt 0.875000 0.500000
vt 0.625000 1.000000
vt 0.875000 0.750000
vn -1.0000 0.0000 0.0000
vn 0.0000 0.0000 1.0000
vn 1.0000 0.0000 0.0000
vn 0.0000 0.0000 -1.0000
vn 0.0000 1.0000 0.0000
vn 0.0000 -1.0000 0.0000
s off
f 50/93/37 51/94/37 49/95/37
f 52/96/38 55/97/38 51/94/38
f 56/98/39 53/99/39 55/97/39
f 54/100/40 49/101/40 53/99/40
f 55/97/41 49/102/41 51/103/41
f 52/104/42 54/100/42 56/98/42
f 50/93/37 52/96/37 51/94/37
f 52/96/38 56/98/38 55/97/38
f 56/98/39 54/100/39 53/99/39
f 54/100/40 50/105/40 49/101/40
f 55/97/41 53/99/41 49/102/41
f 52/104/42 50/106/42 54/100/42
o Cube.004_Cube.008
v -2.547362 2.147881 -2.302438
v -2.547362 1.981769 -2.302438
v -2.547362 2.147881 -1.932925
v -2.547362 1.981769 -1.932925
v 2.693076 2.147881 -2.302438
v 2.693076 1.981769 -2.302438
v 2.693076 2.147881 -1.932925
v 2.693076 1.981769 -1.932925
vt 0.625000 0.000000
vt 0.375000 0.250000
vt 0.375000 0.000000
vt 0.625000 0.250000
vt 0.375000 0.500000
vt 0.625000 0.500000
vt 0.375000 0.750000
vt 0.625000 0.750000
vt 0.375000 1.000000
vt 0.125000 0.750000
vt 0.125000 0.500000
vt 0.875000 0.500000
vt 0.625000 1.000000
vt 0.875000 0.750000
vn -1.0000 0.0000 0.0000
vn 0.0000 0.0000 1.0000
vn 1.0000 0.0000 0.0000
vn 0.0000 0.0000 -1.0000
vn 0.0000 1.0000 0.0000
vn 0.0000 -1.0000 0.0000
s off
f 58/107/43 59/108/43 57/109/43
f 60/110/44 63/111/44 59/108/44
f 64/112/45 61/113/45 63/111/45
f 62/114/46 57/115/46 61/113/46
f 63/111/47 57/116/47 59/117/47
f 60/118/48 62/114/48 64/112/48
f 58/107/43 60/110/43 59/108/43
f 60/110/44 64/112/44 63/111/44
f 64/112/45 62/114/45 61/113/45
f 62/114/46 58/119/46 57/115/46
f 63/111/47 61/113/47 57/116/47
f 60/118/48 58/120/48 62/114/48
